<?xml version="1.0" encoding="UTF-8"?>
<svg id="_レイヤー_2" data-name="レイヤー 2" xmlns="http://www.w3.org/2000/svg" viewBox="0 0 817.34 211.48">
  <defs>
    <style>
      .cls-1 {
        fill: #192739;
      }
    </style>
  </defs>
  <g id="_レイヤー_1-2" data-name="レイヤー 1">
    <g>
      <path class="cls-1" d="M0,206.26V0H19.13l124.52,189.22V0h13.91V206.26h-19.13L13.91,19.83V206.26H0Z"/>
      <path class="cls-1" d="M217.32,199.3c-10.44-8.35-15.65-18.32-15.65-29.91s5.1-20.87,15.3-29.22c9.97-8.35,22.49-13.22,37.57-14.61,14.61-1.39,26.55-3.71,35.83-6.96,9.51-3.25,14.26-7.07,14.26-11.48v-13.22c0-7.65-4.17-14.14-12.52-19.48-8.12-5.33-18.09-8-29.91-8-11.13,0-20.76,2.55-28.87,7.65-7.89,5.34-11.83,11.6-11.83,18.78v7.65h-13.22v-9.04c0-9.97,5.22-18.43,15.65-25.39,10.66-6.96,23.42-10.44,38.26-10.44s28.4,3.36,39.3,10.09c10.9,6.73,16.35,14.84,16.35,24.35v89.74c0,5.8,1.27,10.78,3.83,14.96,2.55,4.17,5.68,6.26,9.39,6.26,1.16,0,2.2-.11,3.13-.35,.92-.23,1.62-.58,2.09-1.04v6.61c-3.48,1.62-7.89,2.43-13.22,2.43s-9.97-2.32-13.91-6.96c-3.71-4.64-5.57-10.2-5.57-16.7-2.78,7.89-8.7,14.26-17.74,19.13-9.04,4.87-19.48,7.3-31.3,7.3-14.61,0-27.02-4.06-37.22-12.17Zm69.91-10.43c9.51-7.88,15.3-17.97,17.39-30.26v-34.09c-3.25,2.78-9.16,5.1-17.74,6.96-8.12,1.86-18.9,3.36-32.35,4.52-10.9,.93-20.06,4.64-27.48,11.13-7.42,6.26-11.13,13.68-11.13,22.26s3.83,16.23,11.48,22.26c7.42,6.26,16.46,9.39,27.13,9.39,12.29,0,23.18-4.05,32.7-12.17Z"/>
      <path class="cls-1" d="M374.82,0h13.91V21.22h-13.91V0Zm0,206.26V58.09h13.91V206.26h-13.91Z"/>
      <path class="cls-1" d="M445.01,206.26V0h13.91V206.26h-13.91Z"/>
      <path class="cls-1" d="M515.21,0h13.91V21.22h-13.91V0Zm0,206.26V58.09h13.91V206.26h-13.91Z"/>
      <path class="cls-1" d="M594.45,189.91c-12.06-14.61-18.09-33.85-18.09-57.74s6.03-43.13,18.09-57.74c12.05-14.38,28.05-21.57,48-21.57s35.94,6.61,48,19.83c12.05,13.22,18.09,30.84,18.09,52.87v6.61h-118.26c0,20.17,4.75,36.29,14.26,48.35,9.5,12.06,22.14,18.09,37.91,18.09,11.83,0,22.49-3.13,32-9.39,9.74-6.49,16.46-14.96,20.17-25.39h13.91c-2.32,13.68-9.74,25.04-22.26,34.09-12.52,9.04-27.13,13.57-43.83,13.57-19.95,0-35.95-7.19-48-21.57Zm100.17-70.96v-5.22c-1.16-13.68-6.73-25.27-16.7-34.78-10.21-9.27-22.03-13.91-35.48-13.91s-25.16,4.76-35.13,14.26c-10.21,9.74-15.89,21.68-17.04,35.83v3.83h104.35Z"/>
      <path class="cls-1" d="M752.99,206.26V58.09h13.91v33.39c3.94-10.66,9.74-19.36,17.39-26.09,7.88-6.49,16.23-9.74,25.04-9.74h8v16c-.7,0-1.51-.23-2.43-.7-.7-.46-1.16-.7-1.39-.7-10.9,0-20.75,4.64-29.56,13.91-8.82,9.28-14.5,20.99-17.04,35.13v86.96h-13.91Z"/>
    </g>
  </g>
</svg>