<?xml version="1.0" encoding="UTF-8"?>
<svg id="_レイヤー_2" data-name="レイヤー 2" xmlns="http://www.w3.org/2000/svg" viewBox="0 0 815.65 231.61">
  <defs>
    <style>
      .cls-1 {
        fill: #444;
      }
    </style>
  </defs>
  <g id="contents">
    <g>
      <path class="cls-1" d="M11.19,19.52L103.03,171.34l23.82,41.04h1.15c-.86-20.09-1.44-39.32-1.44-58.84V19.52h10.33V227.88h-11.48L33.87,76.06,10.04,35.01h-1.15c.57,19.52,1.15,37.31,1.15,57.11V227.88H0V19.52H11.19Z"/>
      <path class="cls-1" d="M191.43,190.57c0-33.58,30.71-49.36,98.73-57.11,.86-24.4-5.45-51.09-36.74-51.09-21.52,0-39.61,10.62-49.36,18.08l-5.17-8.04c9.76-6.89,30.42-19.52,55.39-19.52,35.3,0,46.21,26.4,46.21,57.11v97.87h-8.61l-1.44-20.09h-.86c-15.5,12.63-34.44,23.82-54.53,23.82-23.53,0-43.62-12.34-43.62-41.04Zm98.73,6.03v-54.24c-65.72,7.17-88.11,22.39-88.11,47.93,0,23.25,15.5,31.86,33.87,31.86s34.44-8.61,54.24-25.54Z"/>
      <path class="cls-1" d="M355.3,27.55c0-7.18,4.88-11.19,10.91-11.19s11.19,4.02,11.19,11.19c0,6.6-5.45,10.91-11.19,10.91-6.03,0-10.91-4.3-10.91-10.91Zm5.45,49.08h10.33V227.88h-10.33V76.63Z"/>
      <path class="cls-1" d="M435.38,210.95V0h10.33V212.67c0,6.31,2.3,9.47,6.31,9.47,1.15,0,2.01,0,5.45-.57l2.01,8.9c-2.58,.86-4.3,1.15-8.61,1.15-9.47,0-15.5-6.03-15.5-20.67Z"/>
      <path class="cls-1" d="M507.13,27.55c0-7.18,4.88-11.19,10.91-11.19s11.19,4.02,11.19,11.19c0,6.6-5.45,10.91-11.19,10.91-6.03,0-10.91-4.3-10.91-10.91Zm5.45,49.08h10.33V227.88h-10.33V76.63Z"/>
      <path class="cls-1" d="M573.99,152.69c0-49.37,31.57-79.79,65.15-79.79s57.11,24.97,57.11,69.74c0,3.16,0,6.6-.57,10.05h-110.78c0,40.18,23.25,69.45,58.84,69.45,17.22,0,30.13-5.45,41.62-13.78l4.59,8.9c-11.48,6.89-24.39,14.35-46.78,14.35-38.17,0-69.17-29.56-69.17-78.93Zm112.22-9.18c0-41.04-18.66-61.13-47.07-61.13s-51.09,22.96-54.24,61.13h101.31Z"/>
      <path class="cls-1" d="M747.34,76.63h8.61l1.72,28.41h.57c10.05-18.37,24.68-32.14,42.76-32.14,5.17,0,9.47,.57,14.64,3.16l-2.58,9.47c-4.88-2.01-7.46-2.58-13.49-2.58-13.49,0-30.14,10.62-41.9,40.47v104.47h-10.33V76.63Z"/>
    </g>
  </g>
</svg>