<?xml version="1.0" encoding="UTF-8"?>
<svg id="_レイヤー_2" data-name="レイヤー 2" xmlns="http://www.w3.org/2000/svg" viewBox="0 0 1021 344">
  <defs>
    <style>
      .cls-1, .cls-2, .cls-3 {
        fill: none;
      }

      .cls-4 {
        fill: #404040;
      }

      .cls-2 {
        stroke-linecap: round;
      }

      .cls-2, .cls-3 {
        stroke: #404040;
        stroke-miterlimit: 10;
        stroke-width: 4px;
      }
    </style>
  </defs>
  <g id="_レイヤー_1-2" data-name="レイヤー 1">
    <g>
      <g>
        <g>
          <path class="cls-4" d="M296.23,167.79c-12.05-23.98-24.11-47.97-36.16-71.95-.02-.2,0-.42-.06-.6-1.8-4.91,.92-10.56,6.06-12.92,4.94-2.27,9.73-4.87,14.6-7.29,4.47-2.22,6.59-5.81,6.38-10.77-.17-4.09-.35-8.17-.57-12.26-.25-4.82,1.82-8.26,6.11-10.41,15.6-7.84,31.2-15.68,46.81-23.52,4.29-2.15,8.28-1.75,11.99,1.33,3.19,2.64,6.38,5.28,9.62,7.87,3.78,3.02,7.86,3.44,12.19,1.26,5-2.52,9.99-5.04,15-7.54,5.97-2.97,11.81-1.1,14.8,4.83,11.59,23,23.16,46,34.66,69.04,.78,1.57,1.3,3.45,1.31,5.19,.03,4.6-2.41,7.65-6.51,9.7-40.62,20.37-81.21,40.79-121.82,61.19-.6,.3-1.21,.6-1.83,.86-1.92,.79-3.88,.9-5.93,.48-2.86-.59-4.9-2.32-6.66-4.49Zm68.11-41.56c17.66-8.78,24.76-30.35,15.9-48.34-8.81-17.89-30.49-25.27-48.28-16.43-17.66,8.77-24.75,30.35-15.9,48.34,8.8,17.89,30.49,25.27,48.28,16.42Z"/>
          <path class="cls-4" d="M356.89,111.21c-9.56,4.81-21.1,.95-25.95-8.69-4.85-9.64-1.08-21.23,8.47-26.03,9.56-4.81,21.1-.94,25.95,8.7,4.85,9.64,1.09,21.21-8.47,26.02Z"/>
        </g>
        <g>
          <path class="cls-4" d="M659.84,255.66c-7.51-10.34-7.72-24.34-.8-35.04,7.72-11.94,21.58-16.98,35.24-13.59,.45,.11,.9,.23,1.34,.36,1.58,.45,3.1,1.14,4.74,1.76-.19-1.6-.47-3.11-.55-4.64-1-20.01,15.54-35.86,35.47-33.7,10.78,1.16,19.19,6.62,24.37,16.16,7.88,14.52,4.7,30.58-8.23,40.84-15.5,12.3-31.22,24.32-47.06,36.18-15.4,11.53-34.82,5.03-44.53-8.33Zm64.58-62.77c-5.34,4.07-6.42,11.92-2.36,17.2,4.03,5.24,11.75,6.27,17.11,2.27,5.34-3.98,6.41-11.84,2.34-17.19-3.99-5.25-11.81-6.29-17.08-2.27Zm-45.95,35.38c-5.25,4.06-6.27,11.84-2.25,17.09,4.05,5.3,11.95,6.31,17.22,2.21,5.24-4.08,6.25-11.8,2.25-17.11-4-5.3-11.9-6.31-17.22-2.19Z"/>
          <path class="cls-4" d="M770.04,301.44c-11.21,8.63-22.48,17.18-33.59,25.94-3.47,2.74-7.48,1.82-9.84-1.3-9.7-12.8-19.56-25.48-29.35-38.21-2.75-3.57-2.32-6.97,1.23-9.7,22.45-17.29,44.91-34.59,67.37-51.87,3.49-2.69,6.94-2.26,9.6,1.19,9.87,12.81,19.73,25.61,29.59,38.43,2.69,3.5,2.25,6.85-1.25,9.55-11.25,8.66-22.5,17.32-33.74,25.99Z"/>
          <path class="cls-4" d="M829.47,216.14c2.84,3.69,5.7,7.38,8.53,11.08,3.06,4,1.93,8.32-2.71,10.37-8.98,3.98-17.97,7.95-26.95,11.93-3.74,1.66-6.38,1-8.86-2.22-2.66-3.44-5.32-6.89-7.96-10.34-2.29-2.99-2.31-5.82,.05-8.78,6.29-7.88,12.6-15.74,18.94-23.58,2.83-3.49,7.33-3.44,10.13,.09,2.99,3.78,5.89,7.62,8.83,11.44Z"/>
        </g>
        <g>
          <path class="cls-4" d="M512.99,182.2c21.43,21.43,42.85,42.85,64.28,64.28,.04,.1,.07,.22,.13,.3,3.26,4.16,2.89,10.5-1.2,14.57-24.03,23.95-48.01,47.96-71.99,71.98-.96,.96-1.98,1.35-3.3,1.35-15.33-.02-30.66-.01-45.99,0-1.04,0-1.85-.34-2.58-1.08-14.8-14.82-29.61-29.62-44.41-44.44-.58-.59-1.13-1.23-1.57-1.93-2.83-4.47-2.16-9.99,1.65-13.8,30.05-30.05,60.1-60.11,90.16-90.16,.1-.1,.19-.19,.29-.29,3.58-3.47,8.94-4.11,13.23-1.6,.44,.26,.87,.53,1.31,.8Zm-11.19,146.13l.73-.73c23.2-23.2,46.4-46.4,69.6-69.6,.24-.24,.47-.49,.7-.73,2.14-2.33,2.06-5.72-.19-7.97-20.82-20.82-41.64-41.64-62.46-62.46-2.28-2.28-5.86-2.29-8.13-.02-30.17,30.17-60.34,60.33-90.5,90.5-2.25,2.25-2.25,5.82,0,8.07,14.12,14.13,28.25,28.25,42.37,42.37,.17,.17,.35,.33,.59,.54,.24-.24,.45-.45,.65-.65,6.92-6.92,13.84-13.84,20.76-20.76,1.53-1.53,2.91-1.53,4.43,0,6.92,6.92,13.84,13.84,20.76,20.76l.68,.68Zm-40.63,.78c11.26,0,22.68,0,33.92,0-5.54-5.54-11.24-11.24-16.96-16.96-5.73,5.73-11.43,11.43-16.96,16.96Z"/>
          <path class="cls-4" d="M523.17,229.71c6.93,6.93,13.87,13.87,20.8,20.8,.82,.82,1.06,1.92,.64,2.91-.41,.99-1.38,1.63-2.44,1.62-.79,0-1.42-.35-1.97-.9-3.64-3.66-7.3-7.3-10.95-10.95-10.22-10.22-20.43-20.43-30.65-30.65-.83-.83-1.13-1.8-.69-2.9,.39-.99,1.16-1.59,2.25-1.68,.87-.07,1.56,.28,2.17,.89,6.22,6.24,12.46,12.47,18.69,18.7,.72,.72,1.43,1.43,2.15,2.15Z"/>
          <path class="cls-4" d="M488.02,260.71c-6.28-6.28-12.56-12.56-18.84-18.84-.83-.83-1.07-1.92-.65-2.91,.43-1.01,1.44-1.67,2.51-1.63,.76,.03,1.37,.36,1.9,.89,3.95,3.96,7.9,7.91,11.85,11.86,8.56,8.56,17.12,17.12,25.68,25.68,.95,.95,1.18,2.14,.61,3.2-.85,1.59-2.89,1.91-4.18,.63-3.32-3.31-6.63-6.63-9.95-9.94-2.98-2.98-5.96-5.96-8.94-8.94Z"/>
          <path class="cls-4" d="M498.48,241.76c-4.88-4.88-9.75-9.75-14.63-14.62-.81-.8-1.05-1.74-.64-2.78,.39-.99,1.15-1.6,2.24-1.7,.7-.06,1.34,.13,1.87,.62,.12,.11,.23,.22,.34,.33,9.69,9.69,19.38,19.38,29.06,29.06,.97,.97,1.2,2.06,.68,3.12-.81,1.65-2.87,2-4.19,.69-2.16-2.14-4.31-4.3-6.46-6.45-2.76-2.76-5.51-5.51-8.27-8.27Z"/>
          <path class="cls-4" d="M471.29,265.99c4.34,4.34,8.68,8.67,13,13.01,1.5,1.5,.95,3.85-1.03,4.43-.91,.27-1.74,.08-2.44-.57-.07-.06-.13-.13-.19-.19-8.7-8.7-17.41-17.41-26.11-26.11-1.18-1.18-1.18-2.67-.01-3.81,1.01-.98,2.52-.98,3.58,.05,1.55,1.51,3.07,3.06,4.6,4.59,2.87,2.87,5.74,5.74,8.61,8.61Z"/>
        </g>
        <path class="cls-4" d="M699.64,102.72c-2.96,8.41-6.47,16.52-10.24,24.71-3.45,7.49-7.13,14.95-12.98,20.9-1.95,1.99-4.24,3.23-7.02,3.64-5.55,.82-11.07,.3-16.54-.46-15.76-2.21-30.95-6.67-45.91-11.94-15.8-5.57-31.11-12.28-45.65-20.65-6.37-3.67-12.57-7.62-17.9-12.75-2.38-2.29-4.54-4.83-4.69-8.32-.13-3.04-.15-6.11,.2-9.13,1.23-10.61,4.56-20.7,7.93-30.76,3.4-10.13,7.74-19.88,12.63-29.37,2.77-5.38,5.9-10.57,10.22-14.93,1.92-1.94,4.15-3.18,6.88-3.59,5.6-.84,11.17-.33,16.7,.45,16.22,2.29,31.84,6.93,47.22,12.42,14.75,5.26,29.06,11.55,42.72,19.26,6.9,3.89,13.63,8.07,19.4,13.58,2.43,2.32,4.54,4.89,4.8,8.44,.14,1.9,.22,3.83,.11,5.73-.48,8.17-2.67,16-4.96,23.8-.89,3.04-1.86,6.02-2.9,8.97Zm-90.1-26.84c-2.49,6.65-4.98,13.29-7.46,19.94-.67,1.79-.32,2.22,1.53,1.88,13.55-2.44,27.1-4.9,40.64-7.36,1.9-.34,2.11-.93,.9-2.45-8.57-10.71-17.14-21.42-25.72-32.12-1.32-1.65-1.79-1.56-2.55,.46-2.46,6.55-4.91,13.1-7.36,19.64Z"/>
        <g>
          <path class="cls-4" d="M186.5,231.91c-19.7,.77-39.14,1.52-58.77,2.29,.25-.35,.4-.58,.57-.79,5.37-6.55,10.75-13.1,16.09-19.67,.46-.57,.81-.65,1.47-.34,13.31,6.06,26.63,12.09,39.95,18.13,.16,.07,.3,.17,.68,.38Z"/>
          <path class="cls-4" d="M185.58,163.61c3.11,19.41,6.18,38.62,9.26,57.83-.06,.02-.11,.04-.17,.07-1.25-1.73-2.5-3.46-3.75-5.19-7.41-10.3-14.81-20.61-22.23-30.91-.34-.48-.42-.79,0-1.3,5.46-6.63,10.9-13.28,16.35-19.92,.13-.15,.27-.29,.54-.58Z"/>
          <path class="cls-4" d="M149.04,208.18c5.09-6.21,10.11-12.34,15.2-18.55,8.98,12.5,17.92,24.94,26.86,37.38l-.14,.17c-13.93-6.31-27.87-12.63-41.93-19Z"/>
          <path class="cls-4" d="M123.21,229.92c-.76-6.81-1.5-13.46-2.26-20.25,5.79,.67,11.45,1.32,17.22,1.99l-14.96,18.26Z"/>
          <path class="cls-4" d="M180.52,160.02c-5.04,6.14-9.94,12.13-14.98,18.27-1.79-5.53-3.54-10.94-5.35-16.5,6.78-.59,13.45-1.17,20.32-1.77Z"/>
          <path class="cls-4" d="M140.86,186.24c5.81,.34,11.48,.68,17.28,1.02-4.24,5.18-8.42,10.27-12.69,15.48-1.54-5.53-3.05-10.95-4.59-16.49Z"/>
          <path class="cls-4" d="M142.82,180.26c4.1-5,8.08-9.85,12.15-14.83,1.72,5.31,3.4,10.52,5.13,15.84-5.76-.34-11.43-.67-17.28-1.02Z"/>
          <path class="cls-4" d="M139.96,205.74c-5.52-.64-10.93-1.26-16.45-1.9,3.98-4.86,7.87-9.61,11.88-14.5,1.53,5.5,3.03,10.89,4.57,16.4Z"/>
        </g>
        <g>
          <path class="cls-4" d="M825.35,156.48c4.83-19.11,9.59-37.98,14.4-57.02,.26,.34,.44,.54,.6,.77,4.77,7,9.53,14.01,14.32,20.99,.42,.61,.39,.96-.09,1.51-9.57,11.06-19.12,22.13-28.68,33.2-.11,.13-.24,.24-.56,.55Z"/>
          <path class="cls-4" d="M891.13,174.88c-19.5-2.5-38.79-4.98-58.09-7.45,0-.06,0-.12-.01-.18,2.01-.71,4.03-1.42,6.04-2.13,11.98-4.2,23.95-8.39,35.93-12.6,.56-.2,.88-.18,1.25,.36,4.82,7.11,9.66,14.21,14.49,21.31,.11,.17,.2,.34,.4,.69Z"/>
          <path class="cls-4" d="M858.7,127.25c4.52,6.63,8.98,13.18,13.5,19.82-14.52,5.08-28.98,10.15-43.44,15.21l-.12-.18c9.99-11.58,19.98-23.17,30.07-34.85Z"/>
          <path class="cls-4" d="M845.14,96.33c6.75,1.2,13.34,2.36,20.06,3.55-2.28,5.37-4.5,10.61-6.77,15.96-4.44-6.53-8.81-12.94-13.29-19.51Z"/>
          <path class="cls-4" d="M896,171.04c-4.47-6.57-8.83-12.96-13.3-19.53,5.81-.16,11.5-.31,17.34-.47-1.35,6.68-2.68,13.23-4.04,19.99Z"/>
          <path class="cls-4" d="M882.06,125.59c-1.97,5.47-3.89,10.82-5.86,16.29l-11.26-16.54c5.73,.08,11.37,.17,17.12,.25Z"/>
          <path class="cls-4" d="M887.24,129.16l10.79,15.84c-5.58,.15-11.05,.29-16.65,.44,1.95-5.43,3.87-10.77,5.86-16.29Z"/>
          <path class="cls-4" d="M863.6,119.23c2.17-5.12,4.3-10.13,6.47-15.24l10.55,15.49c-5.71-.08-11.31-.17-17.02-.25Z"/>
        </g>
        <g>
          <circle class="cls-3" cx="303.54" cy="276.57" r="27.45"/>
          <path class="cls-2" d="M301.37,261.28c.59-.06,6.17-.5,10.83,4.18,3.15,3.16,4.02,6.79,4.25,7.9"/>
        </g>
      </g>
      <rect class="cls-1" width="1021" height="344"/>
    </g>
  </g>
</svg>