<?xml version="1.0" encoding="UTF-8"?>
<svg id="_レイヤー_2" data-name="レイヤー 2" xmlns="http://www.w3.org/2000/svg" viewBox="0 0 1021 561.5">
  <defs>
    <style>
      .cls-1, .cls-2, .cls-3, .cls-4 {
        fill: none;
      }

      .cls-2, .cls-3, .cls-4, .cls-5 {
        stroke-miterlimit: 10;
        stroke-width: 3px;
      }

      .cls-2, .cls-3, .cls-5 {
        stroke: #444;
      }

      .cls-2, .cls-5 {
        stroke-linecap: round;
      }

      .cls-4 {
        stroke: #404040;
      }

      .cls-6 {
        fill: #404040;
      }

      .cls-7 {
        fill: #444;
      }

      .cls-8 {
        fill: #6d6d6d;
      }

      .cls-5 {
        fill: #fff;
      }
    </style>
  </defs>
  <g id="_レイヤー_1-2" data-name="レイヤー 1">
    <g>
      <rect class="cls-1" width="1021" height="561.5"/>
      <g>
        <path class="cls-6" d="M327.04,303.06c-12.05-23.98-24.11-47.97-36.16-71.95-.02-.2,0-.42-.06-.6-1.8-4.91,.92-10.56,6.06-12.92,4.94-2.27,9.73-4.87,14.6-7.29,4.47-2.22,6.59-5.81,6.38-10.77-.17-4.09-.35-8.17-.57-12.26-.25-4.82,1.82-8.26,6.11-10.41,15.6-7.84,31.2-15.68,46.81-23.52,4.29-2.15,8.28-1.75,11.99,1.33,3.19,2.64,6.38,5.28,9.62,7.87,3.78,3.02,7.86,3.44,12.19,1.26,5-2.52,9.99-5.04,15-7.54,5.97-2.97,11.81-1.1,14.8,4.83,11.59,23,23.16,46,34.66,69.04,.78,1.57,1.3,3.45,1.31,5.19,.03,4.6-2.41,7.65-6.51,9.7-40.62,20.37-81.21,40.79-121.82,61.19-.6,.3-1.21,.6-1.83,.86-1.92,.79-3.88,.9-5.93,.48-2.86-.59-4.9-2.32-6.66-4.49Zm68.11-41.56c17.66-8.78,24.76-30.35,15.9-48.34-8.81-17.89-30.49-25.27-48.28-16.43-17.66,8.77-24.75,30.35-15.9,48.34,8.8,17.89,30.49,25.27,48.28,16.42Z"/>
        <path class="cls-6" d="M387.7,246.48c-9.56,4.81-21.1,.95-25.95-8.69-4.85-9.64-1.08-21.23,8.47-26.03,9.56-4.81,21.1-.94,25.95,8.7,4.85,9.64,1.09,21.21-8.47,26.02Z"/>
      </g>
      <path class="cls-7" d="M730.45,237.99c-2.96,8.41-6.47,16.52-10.24,24.71-3.45,7.49-7.13,14.95-12.98,20.9-1.95,1.99-4.24,3.23-7.02,3.64-5.55,.82-11.07,.3-16.54-.46-15.76-2.21-30.95-6.67-45.91-11.94-15.8-5.57-31.11-12.28-45.65-20.65-6.37-3.67-12.57-7.62-17.9-12.75-2.38-2.29-4.54-4.83-4.69-8.32-.13-3.04-.15-6.11,.2-9.13,1.23-10.61,4.56-20.7,7.93-30.76,3.4-10.13,7.74-19.88,12.63-29.37,2.77-5.38,5.9-10.57,10.22-14.93,1.92-1.94,4.15-3.18,6.88-3.59,5.6-.84,11.17-.33,16.7,.45,16.22,2.29,31.84,6.93,47.22,12.42,14.75,5.26,29.06,11.55,42.72,19.26,6.9,3.89,13.63,8.07,19.4,13.58,2.43,2.32,4.54,4.89,4.8,8.44,.14,1.9,.22,3.83,.11,5.73-.48,8.17-2.67,16-4.96,23.8-.89,3.04-1.86,6.02-2.9,8.97Zm-90.1-26.84c-2.49,6.65-4.98,13.29-7.46,19.94-.67,1.79-.32,2.22,1.53,1.88,13.55-2.44,27.1-4.9,40.64-7.36,1.9-.34,2.11-.93,.9-2.45-8.57-10.71-17.14-21.42-25.72-32.12-1.32-1.65-1.79-1.56-2.55,.46-2.46,6.55-4.91,13.1-7.36,19.64Z"/>
      <g>
        <path class="cls-7" d="M246.31,350.18c-19.7,.77-39.14,1.52-58.77,2.29,.25-.35,.4-.58,.57-.79,5.37-6.55,10.75-13.1,16.09-19.67,.46-.57,.81-.65,1.47-.34,13.31,6.06,26.63,12.09,39.95,18.13,.16,.07,.3,.17,.68,.38Z"/>
        <path class="cls-7" d="M245.39,281.88c3.11,19.41,6.18,38.62,9.26,57.83-.06,.02-.11,.04-.17,.07-1.25-1.73-2.5-3.46-3.75-5.19-7.41-10.3-14.81-20.61-22.23-30.91-.34-.48-.42-.79,0-1.3,5.46-6.63,10.9-13.28,16.35-19.92,.13-.15,.27-.29,.54-.58Z"/>
        <path class="cls-7" d="M208.85,326.45c5.09-6.21,10.11-12.34,15.2-18.55,8.98,12.5,17.92,24.94,26.86,37.38l-.14,.17c-13.93-6.31-27.87-12.63-41.93-19Z"/>
        <path class="cls-7" d="M183.02,348.19c-.76-6.81-1.5-13.46-2.26-20.25,5.79,.67,11.45,1.32,17.22,1.99-5.01,6.11-9.92,12.11-14.96,18.26Z"/>
        <path class="cls-7" d="M240.33,278.3c-5.04,6.14-9.94,12.13-14.98,18.27-1.79-5.53-3.54-10.94-5.35-16.5,6.78-.59,13.45-1.17,20.32-1.77Z"/>
        <path class="cls-7" d="M200.67,304.51c5.81,.34,11.48,.68,17.28,1.02-4.24,5.18-8.42,10.27-12.69,15.48-1.54-5.53-3.05-10.95-4.59-16.49Z"/>
        <path class="cls-7" d="M202.63,298.53c4.1-5,8.08-9.85,12.15-14.83,1.72,5.31,3.4,10.52,5.13,15.84-5.76-.34-11.43-.67-17.28-1.02Z"/>
        <path class="cls-7" d="M199.77,324.01c-5.52-.64-10.93-1.26-16.45-1.9,3.98-4.86,7.87-9.61,11.88-14.5,1.53,5.5,3.03,10.89,4.57,16.4Z"/>
      </g>
      <g>
        <path class="cls-7" d="M868.16,325.75c4.83-19.11,9.59-37.98,14.4-57.02,.26,.34,.44,.54,.6,.77,4.77,7,9.53,14.01,14.32,20.99,.42,.61,.39,.96-.09,1.51-9.57,11.06-19.12,22.13-28.68,33.2-.11,.13-.24,.24-.56,.55Z"/>
        <path class="cls-7" d="M933.94,344.16c-19.5-2.5-38.79-4.98-58.09-7.45,0-.06,0-.12-.01-.18,2.01-.71,4.03-1.42,6.04-2.13,11.98-4.2,23.95-8.39,35.93-12.6,.56-.2,.88-.18,1.25,.36,4.82,7.11,9.66,14.21,14.49,21.31,.11,.17,.2,.34,.4,.69Z"/>
        <path class="cls-7" d="M901.51,296.52c4.52,6.63,8.98,13.18,13.5,19.82-14.52,5.08-28.98,10.15-43.44,15.21l-.12-.18c9.99-11.58,19.98-23.17,30.07-34.85Z"/>
        <path class="cls-7" d="M887.95,265.6c6.75,1.2,13.34,2.36,20.06,3.55-2.28,5.37-4.5,10.61-6.77,15.96-4.44-6.53-8.81-12.94-13.29-19.51Z"/>
        <path class="cls-7" d="M938.81,340.32c-4.47-6.57-8.83-12.96-13.3-19.53,5.81-.16,11.5-.31,17.34-.47-1.35,6.68-2.68,13.23-4.04,19.99Z"/>
        <path class="cls-7" d="M924.86,294.87c-1.97,5.47-3.89,10.82-5.86,16.29l-11.26-16.54c5.73,.08,11.37,.17,17.12,.25Z"/>
        <path class="cls-7" d="M930.05,298.44c3.64,5.34,7.17,10.53,10.79,15.84-5.58,.15-11.05,.29-16.65,.44,1.95-5.43,3.87-10.77,5.86-16.29Z"/>
        <path class="cls-7" d="M906.41,288.5c2.17-5.12,4.3-10.13,6.47-15.24,3.53,5.19,6.99,10.27,10.55,15.49-5.71-.08-11.31-.17-17.02-.25Z"/>
      </g>
      <g>
        <circle class="cls-3" cx="345.35" cy="411.84" r="27.45"/>
        <path class="cls-2" d="M343.18,396.55c.59-.06,6.17-.5,10.83,4.18,3.15,3.16,4.02,6.79,4.25,7.9"/>
      </g>
      <path class="cls-7" d="M704.02,421.05c-.45-1.95-.89-3.9-1.34-5.85,0-.47,.05-.95-.03-1.4-1.34-8.19-.86-16.32,1.01-24.36,3.7-15.91,11.74-29.44,23.1-41.03,10-10.2,21.71-17.82,35.1-22.86,6.72-2.53,13.65-4.28,20.76-5.03,10.33-1.09,20.53-.3,30.38,3.26,7.36,2.66,13.91,6.65,19.24,12.43,3.08,3.35,4.93,7.25,4.11,11.96-.75,4.31-3.29,7.54-6.58,10.21-5.14,4.17-11.15,6.66-17.34,8.78-3.41,1.17-6.57,2.71-9.09,5.41-3.8,4.08-4.74,10.34-2.03,14.96,3.23,5.5,8.31,7.7,14.45,7.32,3.44-.21,6.83-1.19,10.27-1.65,3.11-.42,6.2-.18,9,1.44,5.41,3.15,7.27,10.69,4.08,16.43-6.9,12.42-16.06,22.85-27.56,31.21-13.94,10.12-29.36,16.37-46.64,17.52-12.3,.81-24.09-1.22-35.06-7.09-10.48-5.6-18.2-13.8-23.03-24.66-1.02-2.29-1.88-4.66-2.81-6.99Zm95.22,12.55c7.03-1.62,11.49-8.7,9.92-15.76-1.57-7.04-8.85-11.61-15.88-9.96-7.07,1.66-11.48,8.71-9.87,15.78,1.63,7.18,8.66,11.58,15.83,9.94Zm5.99-98.8c-5.77,1.33-9.49,7.32-8.15,13.09,1.35,5.79,7.31,9.51,13.08,8.17,5.76-1.34,9.53-7.38,8.19-13.1-1.35-5.75-7.36-9.49-13.12-8.16Zm-36.76,.84c-5.68,1.41-9.25,7.06-7.89,12.48,1.44,5.76,7.07,9.17,12.8,7.78,5.44-1.32,8.84-7.16,7.44-12.77-1.33-5.31-7.09-8.8-12.35-7.49Zm-37.06,31.24c1.25,5.52,6.4,8.77,12,7.57,5.05-1.08,8.5-6.62,7.36-11.82-1.17-5.31-6.52-8.67-11.97-7.52-5.13,1.08-8.57,6.55-7.39,11.76Zm4.21,26.82c-1.19-5.17-6.2-8.33-11.38-7.18-4.87,1.08-8.08,6.22-6.96,11.14,1.21,5.33,6.12,8.42,11.44,7.21,4.9-1.12,8.04-6.2,6.89-11.17Zm2.89,43.31c4.76-.99,7.78-5.78,6.78-10.74-.92-4.56-5.82-7.68-10.55-6.72-4.83,.98-8,5.91-6.94,10.79,1.01,4.65,5.87,7.67,10.7,6.67Z"/>
      <path class="cls-8" d="M77.29,187.07c5.42-11,15.71-20.1,27.37-23.85,10.01-3.22,20.83-2.63,30.64,1.04,2.94,1.1,5.77,2.47,8.45,4.09,1.67,1.01,3.66,1.29,5.4,2.23,2.13,1.15,4.06,2.75,5.43,4.76,2.74,4.03,2.85,9.26-.12,13.23-3.21,4.29-9.91,6.19-14.47,2.94-3.4-2.42-4.68-7.16-4.12-11.15s3.48-7.29,6.73-9.41c8.2-5.36,19.24-6.08,28.7-4.98s19.04,4.96,26.63,11.23c9.98,8.23,17.17,19.86,21.31,32.04,.18,.52,.35,1.05,.51,1.58,.43,1.38,2.6,.79,2.17-.6-3.75-12.08-10.54-23.71-19.81-32.35-7.54-7.02-16.82-11.78-26.97-13.59-10.31-1.85-22.1-1.44-31.56,3.49-4.25,2.22-8.06,5.74-9.52,10.42-1.13,3.6-.56,7.88,1.2,11.18,2.59,4.87,8.1,6.97,13.37,5.59s9.32-5.63,10.17-11.01c.78-4.95-1.43-9.78-5.17-13-2.05-1.77-4.48-3.07-7.07-3.85-1.29-.39-2.34-1.11-3.53-1.76-8.55-4.68-18.42-7.08-28.17-6.36-16.33,1.22-30.82,11.32-38.73,25.5-.27,.48-.53,.96-.77,1.46-.64,1.29,1.3,2.44,1.94,1.14h0Z"/>
      <path class="cls-8" d="M335.67,479.74c-.29,11.88-5.56,24.07-14.06,32.32-7.47,7.25-17.45,11.55-27.78,12.54-3.32,.32-6.68,.33-10.01,0-.46-.04-.93-.13-1.4-.16-1.1-.06-2.26,.31-3.39,.35-2.39,.08-4.82-.3-7.02-1.26-4.49-1.95-7.48-6.17-7.23-11.15s4.15-9.64,9.06-10.48,8.71,2.48,10.71,6.47c1.73,3.45,1.46,7.36-.06,10.85-1.74,4-4.88,7.3-8.22,10.01-3.99,3.24-8.61,5.8-13.38,7.71-9.52,3.8-19.86,5.04-29.94,2.94-13.55-2.82-25.91-10.79-35.4-20.72-.41-.42-.8-.85-1.2-1.29-.97-1.08-2.56,.52-1.59,1.59,9.06,10.03,21.12,18.17,34.2,21.77,10.43,2.87,21.37,2.44,31.6-1.04,5.31-1.8,10.42-4.31,14.98-7.59,3.88-2.79,7.52-6.18,9.93-10.36,2.05-3.55,3.19-7.93,2.18-11.99s-3.99-8.01-7.86-9.74c-4.77-2.13-10.13-.49-13.57,3.26-3.66,3.98-4.73,9.71-2.55,14.69,1.98,4.52,6.52,7.43,11.28,8.27,1.22,.22,2.46,.33,3.7,.31s2.54-.39,3.78-.36,2.47,.26,3.7,.32c10.01,.5,20.23-1.8,28.83-7.02,13.5-8.19,21.72-23.06,22.88-38.66,.04-.54,.07-1.07,.08-1.61,.04-1.45-2.21-1.45-2.25,0h0Z"/>
      <path class="cls-8" d="M507.89,143.25c-1.08-.78-2.19-1.71-3.36-2.77-2.21-2.01-4.25-4.22-6.08-6.57-5.35-6.87-8.9-15.15-9.68-23.86-.89-10.02,1.72-20.02,6.92-28.58,1.47-2.42,3.13-4.73,4.99-6.87,.5-.57,.78-1.12,1.11-1.81,.62-1.26,1.37-2.46,2.27-3.53,1.5-1.79,3.37-3.28,5.52-4.22,4.48-1.98,9.7-.91,12.98,2.77s4.07,10.45,.37,14.3c-3.03,3.16-8.11,3.62-12.1,2.28-3.51-1.18-6.18-4.42-7.74-7.73-1.94-4.12-2.56-8.82-2.62-13.33-.06-5.29,.72-10.58,2.16-15.68,2.71-9.57,7.93-18.11,15.39-24.7,9.81-8.67,22.68-13.86,35.52-15.94,.55-.09,1.11-.17,1.66-.25,1.43-.19,.82-2.36-.6-2.17-12.69,1.72-25.39,6.65-35.5,14.55-8.17,6.38-14.24,14.89-17.63,24.69s-4.89,21.76-1.25,31.75c1.55,4.24,4.29,8.28,8.43,10.33,3.45,1.71,7.89,1.91,11.5,.57,5.21-1.94,8.07-7.07,7.4-12.53-.65-5.32-4.16-9.86-9.3-11.54-4.73-1.54-9.75-.05-13.51,3.02-2.06,1.68-3.74,3.86-4.91,6.24-.34,.69-.54,1.09-1.03,1.66-.39,.46-.77,.92-1.15,1.39-5.67,7.14-9.6,15.71-10.86,24.77-2.36,16.97,5.15,33.93,18.42,44.55,.5,.4,1,.79,1.52,1.16,1.18,.85,2.3-1.1,1.14-1.94h0Z"/>
      <path class="cls-8" d="M755.81,541.52c-10.22,9.89-25.54,14.97-39.57,12.58-9.19-1.56-17.66-5.99-24.45-12.33-1.87-1.75-3.5-3.66-5.18-5.58-.6-.69-1.42-1.12-2.13-1.7-.95-.79-1.83-1.68-2.59-2.65-1.51-1.92-2.59-4.21-3-6.63-.81-4.73,1.53-9.48,5.78-11.74s10.17-1.69,13.28,2.12c2.84,3.48,2.5,8.81,.44,12.59-1.75,3.21-5.18,5.24-8.6,6.22-8.94,2.55-19.25-.08-27.48-3.81-9.12-4.14-16.95-10.56-22.38-19.01-7.32-11.39-10.4-25.41-10.2-38.86,0-.59,.03-1.17,.05-1.76,.06-1.45-2.19-1.44-2.25,0-.57,13.19,2.17,27.06,8.59,38.64,5.14,9.26,12.86,16.7,22.26,21.57,8.88,4.59,19.68,7.7,29.72,5.91,4.38-.78,8.67-2.85,11.38-6.47,2.37-3.16,3.23-7.6,2.51-11.45-.99-5.27-5.5-8.77-10.72-9.2s-10.03,1.95-12.77,6.27-2.49,9.3-.43,13.67c1.12,2.37,2.82,4.49,4.82,6.17,.72,.6,1.59,1.08,2.2,1.79,.33,.39,.65,.8,.98,1.19,5.31,6.24,12.12,11.25,19.69,14.37,10.16,4.19,21.58,4.61,32.03,1.22,6.66-2.16,12.94-5.7,18.24-10.29,.47-.4,.92-.82,1.37-1.24,1.04-1.01-.55-2.6-1.59-1.59h0Z"/>
      <path class="cls-8" d="M818.37,232.23c-2.86-12.59-.09-26.81,7.4-37.28,5.5-7.69,13.5-13.37,22.37-16.51,2.84-1,5.77-1.77,8.74-2.27,.95-.16,1.79-.14,2.69-.46,2.53-.89,4.79-1.73,7.53-1.71,4.61,.05,9.07,2.25,11.11,6.53s1.03,9.46-2.21,12.85c-6.42,6.72-16.75,.58-17.79-7.52-1.13-8.83,5.6-17.2,11.66-22.77,7.48-6.9,16.85-11.87,26.9-13.63,15.73-2.76,32.28,2.29,45.62,10.6,.58,.36,1.15,.73,1.71,1.1,1.21,.81,2.34-1.14,1.14-1.94-12.88-8.6-29.09-13.96-44.65-12.52-11.08,1.03-21.4,5.68-29.95,12.74-6.93,5.72-14.04,13.94-14.74,23.31-.29,3.8,.69,7.45,3.09,10.41,3.07,3.78,7.96,6.25,12.87,5.14,4.47-1.01,7.8-4.87,9.11-9.13,1.49-4.84-.04-10.45-3.86-13.8-3.74-3.28-8.98-4.18-13.77-3.26-1.99,.38-3.66,1.4-5.44,1.65-1.18,.16-2.36,.36-3.53,.61-8.5,1.78-16.6,5.63-23.17,11.33-12.89,11.19-18.19,28.82-15.33,45.44,.1,.57,.21,1.13,.33,1.69,.32,1.41,2.49,.81,2.17-.6h0Z"/>
      <g>
        <polygon class="cls-3" points="508.78 409.88 481.72 424.33 502.47 431 523.45 437.35 508.78 409.88"/>
        <polygon class="cls-4" points="523.21 436.9 502.54 431.13 523.45 437.35 523.21 436.9"/>
        <path class="cls-3" d="M607.29,394.42c2.36-1.26,3.29-4.13,2.07-6.41l-42.89-80.29c-1.22-2.28-4.12-3.11-6.48-1.84l-107.78,57.58c-2.36,1.26-3.29,4.13-2.07,6.41l29.16,54.58,46.18,13.68,81.82-43.71Z"/>
        <path class="cls-2" d="M546.82,325.14c10.3,19.28,20.6,38.55,30.89,57.83"/>
        <path class="cls-5" d="M527.5,335.46c7.72,14.46,15.45,28.91,23.17,43.37"/>
        <path class="cls-5" d="M508.18,345.78c10.3,19.28,20.6,38.55,30.89,57.83"/>
        <path class="cls-5" d="M488.85,356.11c7.72,14.46,15.45,28.91,23.17,43.37"/>
      </g>
    </g>
  </g>
</svg>