<?xml version="1.0" encoding="UTF-8"?>
<svg id="_レイヤー_2" data-name="レイヤー 2" xmlns="http://www.w3.org/2000/svg" viewBox="0 0 300.47 168.83">
  <defs>
    <style>
      .cls-1 {
        fill: #fff;
      }

      .cls-2 {
        fill: #404040;
      }

      .cls-3 {
        fill: none;
        stroke: #404040;
        stroke-miterlimit: 10;
        stroke-width: 4px;
      }
    </style>
  </defs>
  <g id="_レイヤー_1-2" data-name="レイヤー 1">
    <g>
      <g>
        <g>
          <path class="cls-2" d="M17.46,88.6c-1.63,0-2.82,.05-4.01-.01-1.92-.09-2.72-.93-2.72-2.8-.01-5.45-.01-10.91,0-16.36,0-1.88,.67-2.51,2.64-2.52,4.24,0,8.47,0,13,0v-2.19c0-20.3,0-40.59,0-60.89C26.36,.81,27.17,0,30.19,0,40.49,0,50.79,0,61.09,0c3.3,0,4.05,.74,4.05,3.97,0,20.17,0,40.35,0,60.52,0,.72,0,1.43,0,2.41,1.49,0,2.86,0,4.23,0,3.03,0,6.06,0,9.09,0,1.44,0,2.3,.62,2.31,2.12,.02,5.69,0,11.39,.01,17.08,0,1.83-1.27,2.3-2.69,2.46-1.18,.13-2.39,.03-3.99,.03,2.51,3.07,4.83,5.84,7.06,8.68,2.84,3.6,6.03,7.02,8.31,10.96,2.92,5.05,2.52,10.51,.11,15.86-3.87,8.57-7.58,17.22-11.45,25.79-1.86,4.12-3.73,8.25-5.95,12.17-2.12,3.74-5.9,5.32-9.97,5.39-10.96,.19-21.93,.2-32.89,0-5.12-.09-9.62-3.16-11.74-8.24-2.13-5.11-4.56-10.09-6.81-15.16-3.21-7.24-6.59-14.41-9.49-21.77-2.75-7-.96-13.31,3.98-18.91,3.2-3.63,6.12-7.49,9.18-11.24,.87-1.07,1.79-2.1,3.01-3.53Z"/>
          <path d="M40.18,35.62c0-6.24-.03-12.48,.02-18.71,.01-1.51-.36-2.66-2.02-2.82-1.57-.15-2.48,.91-2.48,2.81-.01,12.48,0,24.95,0,37.43,0,1.57,1.1,3.06,2.21,3.09,1.38,.04,2.27-1.15,2.27-3.08,0-6.24,0-12.48,0-18.71Z"/>
          <path class="cls-1" d="M40.18,35.62c0,6.24,0,12.48,0,18.71,0,1.92-.9,3.12-2.27,3.08-1.11-.03-2.21-1.52-2.21-3.09-.01-12.48-.01-24.95,0-37.43,0-1.9,.91-2.96,2.48-2.81,1.67,.16,2.03,1.31,2.02,2.82-.04,6.24-.02,12.47-.02,18.71Z"/>
          <path class="cls-1" d="M16.22,113.82c.4,.38,1.39,.95,1.79,1.8,2.32,4.89,4.52,9.84,6.73,14.78,2.2,4.94,4.37,9.9,6.54,14.85,.76,1.74,1.56,3.47,2.23,5.25,.59,1.55,.05,2.76-1.38,3.32-1.49,.58-2.61,.03-3.25-1.35-2.19-4.75-4.35-9.52-6.48-14.3-2.37-5.32-4.71-10.66-7.06-15.99-.74-1.69-1.54-3.35-2.16-5.08-.59-1.65,.69-3.3,3.04-3.28Z"/>
        </g>
        <g>
          <path class="cls-2" d="M114.84,.08c34.1,0,68.2,0,102.3,0,.12,.05,.23,.12,.35,.14,5.91,.72,10.65,6.06,10.64,12.55-.07,38.19-.04,76.38,0,114.57,0,1.53-.51,2.65-1.55,3.7-12.21,12.19-24.41,24.39-36.6,36.6-.83,.83-1.74,1.2-2.91,1.2-23.57-.02-47.14,0-70.7-.02-.93,0-1.88-.08-2.79-.28-5.81-1.31-9.66-6.23-9.66-12.3,0-47.83,0-95.66,0-143.49,0-.15,0-.3,0-.46,.09-5.6,3.84-10.38,9.26-11.8,.56-.15,1.12-.27,1.68-.4Zm107.39,125.19v-1.17c0-36.92,0-73.85,0-110.77,0-.38-.01-.76-.03-1.14-.16-3.56-2.91-6.19-6.49-6.19-33.14,0-66.27,0-99.41,0-3.63,0-6.48,2.84-6.49,6.46,0,48.01,0,96.03,0,144.04,0,3.59,2.84,6.42,6.43,6.42,22.48,0,44.96,0,67.44,0,.27,0,.54-.02,.9-.04,0-.39,0-.71,0-1.03,0-11.01,0-22.03,0-33.04,0-2.43,1.1-3.53,3.53-3.53,11.01,0,22.02,0,33.03,0h1.09Zm-31.71,32.95c8.96-8.96,18.04-18.05,26.99-27-8.81,0-17.88,0-26.99,0,0,9.12,0,18.2,0,27Z"/>
          <path class="cls-2" d="M160.75,29.8c11.03,0,22.07,0,33.1,0,1.31,0,2.37,.68,2.83,1.81,.46,1.11,.2,2.39-.66,3.23-.63,.62-1.4,.85-2.28,.85-5.81,0-11.62,0-17.43,0-16.26,0-32.52,0-48.78,0-1.32,0-2.33-.54-2.86-1.75-.48-1.1-.34-2.19,.46-3.13,.63-.74,1.46-1.02,2.44-1.01,9.92,.01,19.84,0,29.75,0,1.14,0,2.28,0,3.42,0Z"/>
          <path class="cls-2" d="M157.45,82.43c-9.99,0-19.99,0-29.98,0-1.32,0-2.38-.68-2.83-1.8-.46-1.14-.18-2.47,.7-3.29,.63-.58,1.37-.81,2.23-.81,6.29,.01,12.58,0,18.87,0,13.62,0,27.24,0,40.87,0,1.52,0,2.64,.77,3.03,2.06,.59,1.95-.78,3.82-2.82,3.82-5.28,.01-10.55,0-15.83,0-4.74,0-9.49,0-14.23,0Z"/>
          <path class="cls-2" d="M150.69,59.03c-7.76,0-15.52,0-23.28,0-1.28,0-2.22-.56-2.72-1.7-.48-1.1-.36-2.19,.43-3.13,.51-.61,1.17-.96,1.98-1,.18,0,.35,0,.53,0,15.42,0,30.84,0,46.26,0,1.54,0,2.59,.68,3.02,1.94,.67,1.95-.69,3.87-2.79,3.89-3.42,.02-6.85,0-10.27,0-4.39,0-8.77,0-13.16,0Z"/>
          <path class="cls-2" d="M148.33,99.94c6.9,0,13.8,0,20.7,0,2.39,0,3.82,2.31,2.71,4.34-.51,.94-1.32,1.45-2.4,1.49-.1,0-.2,0-.3,0-13.85,0-27.7,0-41.56,0-1.88,0-3.07-1.19-3.04-3.02,.02-1.59,1.23-2.79,2.89-2.81,2.44-.02,4.87,0,7.31,0,4.57,0,9.13,0,13.7,0Z"/>
        </g>
      </g>
      <g>
        <path class="cls-3" d="M195.35,62.28l7.5,21.01c.72,2.01,3.27,2.62,4.82,1.16l13.04-12.3c1.55-1.47,1.09-4.05-.88-4.88l-20.54-8.71c-2.38-1.01-4.81,1.29-3.94,3.72Z"/>
        <path class="cls-2" d="M196.03,105.06h111.58c.93,0,1.69,.76,1.69,1.69v23.64c0,.93-.76,1.69-1.69,1.69h-111.13c-.93,0-1.69-.76-1.69-1.69v-24.08c0-.69,.56-1.25,1.25-1.25Z" transform="translate(165.3 -146.12) rotate(46.66)"/>
        <polygon class="cls-2" points="195.87 58.81 198.96 69.84 206.7 62.54 195.87 58.81"/>
      </g>
    </g>
  </g>
</svg>