<?xml version="1.0" encoding="UTF-8"?>
<svg id="_レイヤー_2" data-name="レイヤー 2" xmlns="http://www.w3.org/2000/svg" viewBox="0 0 292.23 163.14">
  <defs>
    <style>
      .cls-1, .cls-2 {
        fill: #fff;
      }

      .cls-3 {
        fill: #444;
      }

      .cls-2, .cls-4 {
        stroke-linecap: round;
      }

      .cls-2, .cls-4, .cls-5 {
        stroke: #444;
      }

      .cls-2, .cls-4, .cls-5, .cls-6 {
        stroke-miterlimit: 10;
        stroke-width: 2px;
      }

      .cls-4, .cls-5, .cls-6 {
        fill: none;
      }

      .cls-6 {
        stroke: #404040;
      }
    </style>
  </defs>
  <g id="_レイヤー_1-2" data-name="レイヤー 1">
    <g>
      <path class="cls-3" d="M16.86,86.45c-1.57,0-2.72,.04-3.87-.01-1.85-.09-2.63-.9-2.63-2.71-.01-5.26,0-10.53,0-15.79,0-1.82,.65-2.43,2.54-2.43,4.09,0,8.18,0,12.54,0v-2.11c0-19.59,0-39.18,0-58.77,0-2.91,.78-3.7,3.7-3.7,9.94,0,19.88,0,29.82,0,3.18,0,3.91,.71,3.91,3.83,0,19.47,0,38.95,0,58.42,0,.69,0,1.38,0,2.33,1.44,0,2.76,0,4.08,0,2.92,0,5.85,0,8.77,0,1.39,0,2.22,.6,2.23,2.05,.02,5.5,0,10.99,.01,16.49,0,1.77-1.23,2.22-2.6,2.38-1.14,.13-2.31,.03-3.85,.03,2.42,2.97,4.66,5.64,6.82,8.37,2.74,3.48,5.82,6.78,8.02,10.58,2.82,4.88,2.43,10.15,.11,15.31-3.73,8.27-7.31,16.62-11.05,24.89-1.79,3.97-3.6,7.96-5.74,11.75-2.04,3.61-5.69,5.13-9.62,5.2-10.58,.18-21.17,.19-31.75,0-4.95-.09-9.29-3.05-11.34-7.95-2.06-4.93-4.4-9.74-6.57-14.63-3.1-6.99-6.37-13.91-9.16-21.01-2.65-6.76-.93-12.84,3.84-18.25,3.09-3.5,5.91-7.23,8.86-10.85,.84-1.03,1.72-2.03,2.91-3.41Z"/>
      <path class="cls-1" d="M37.3,35.32c0,6.02,0,12.04,0,18.06,0,1.86-.53,3.01-1.35,2.97-.66-.03-1.32-1.47-1.32-2.98,0-12.04,0-24.08,0-36.12,0-1.83,.54-2.86,1.48-2.71,.99,.15,1.21,1.26,1.21,2.73-.03,6.02-.01,12.04-.01,18.06Z"/>
      <path class="cls-5" d="M199.61,69.4l6.91,19.08c.73,2,3.27,2.61,4.82,1.14l11.73-11.07c1.55-1.46,1.09-4.03-.86-4.88l-18.65-8.01c-2.38-1.02-4.84,1.29-3.95,3.73Z"/>
      <path class="cls-3" d="M200.93,107h97.41c.93,0,1.69,.76,1.69,1.69v20.38c0,.93-.76,1.69-1.69,1.69h-96.96c-.93,0-1.69-.76-1.69-1.69v-20.82c0-.69,.56-1.25,1.25-1.25Z" transform="translate(164.83 -144.43) rotate(46.66)"/>
      <path class="cls-3" d="M200.25,68.28l1.52,7.09c.27,1.27,1.83,1.75,2.77,.86l5.48-5.17c.94-.89,.55-2.47-.7-2.82l-6.99-1.92c-1.21-.33-2.33,.73-2.07,1.95Z"/>
      <path class="cls-1" d="M22.85,131.27c2.41,5.52,4.83,11.03,7.24,16.55,.74,1.7,.72,2.97-.05,3.26-.62,.23-1.79-.82-2.4-2.2-4.83-11.03-9.66-22.06-14.48-33.09-.73-1.68-.65-2.84,.27-3.08,.97-.26,1.62,.67,2.2,2.01,2.39,5.53,4.82,11.04,7.23,16.55Z"/>
      <polygon class="cls-5" points="184.91 121.99 184.91 159.46 204.04 140.94 222.96 121.99 184.91 121.99"/>
      <polygon class="cls-6" points="222.34 121.99 204.23 140.94 222.96 121.99 222.34 121.99"/>
      <path class="cls-5" d="M224.96,6.92c0-3.27-2.56-5.92-5.72-5.92H108.03c-3.16,0-5.72,2.65-5.72,5.92V156.21c0,3.27,2.56,5.92,5.72,5.92h75.6l41.33-41.89V6.92Z"/>
      <path class="cls-4" d="M115.5,32.2h80.1"/>
      <path class="cls-2" d="M115.5,58.97h60.07"/>
      <path class="cls-2" d="M115.5,85.73h80.1"/>
      <path class="cls-2" d="M115.5,112.5h60.07"/>
    </g>
  </g>
</svg>