<?xml version="1.0" encoding="UTF-8"?>
<svg id="_レイヤー_2" data-name="レイヤー 2" xmlns="http://www.w3.org/2000/svg" viewBox="0 0 97 95.6">
  <defs>
    <style>
      .cls-1 {
        fill: #fff;
      }

      .cls-2 {
        fill: #24292f;
        fill-rule: evenodd;
      }
    </style>
  </defs>
  <g id="_レイヤー_1-2" data-name="レイヤー 1">
    <g>
      <rect class="cls-1" x="33.56" y="81.45" width="29.87" height="14.15"/>
      <ellipse class="cls-1" cx="48.5" cy="47.6" rx="48.5" ry="47.51"/>
      <g>
        <circle class="cls-1" cx="48.5" cy="47.69" r="46.43"/>
        <path class="cls-2" d="M48.54,0C21.75,0,.09,21.82,.09,48.81c0,21.57,13.88,39.84,33.13,46.3,2.41,.49,3.29-1.05,3.29-2.34,0-1.13-.08-5.01-.08-9.05-13.48,2.91-16.28-5.82-16.28-5.82-2.17-5.66-5.37-7.11-5.37-7.11-4.41-2.99,.32-2.99,.32-2.99,4.89,.32,7.46,5.01,7.46,5.01,4.33,7.43,11.31,5.33,14.12,4.04,.4-3.15,1.68-5.33,3.05-6.54-10.75-1.13-22.06-5.33-22.06-24.08,0-5.33,1.92-9.7,4.97-13.09-.48-1.21-2.17-6.22,.48-12.93,0,0,4.09-1.29,13.31,5.01,3.95-1.07,8.02-1.61,12.11-1.62,4.09,0,8.26,.57,12.11,1.62,9.22-6.3,13.31-5.01,13.31-5.01,2.65,6.71,.96,11.72,.48,12.93,3.13,3.39,4.97,7.76,4.97,13.09,0,18.75-11.31,22.87-22.14,24.08,1.77,1.54,3.29,4.44,3.29,9.05,0,6.54-.08,11.8-.08,13.41,0,1.29,.88,2.83,3.29,2.34,19.25-6.47,33.13-24.73,33.13-46.3C96.98,21.82,75.25,0,48.54,0Z"/>
      </g>
    </g>
  </g>
</svg>