<?xml version="1.0" encoding="UTF-8"?>
<svg id="_レイヤー_2" data-name="レイヤー 2" xmlns="http://www.w3.org/2000/svg" viewBox="0 0 95.63 95.63">
  <defs>
    <style>
      .cls-1 {
        fill: #fff;
      }

      .cls-2 {
        fill: #333;
      }
    </style>
  </defs>
  <g id="_レイヤー_1-2" data-name="レイヤー 1">
    <g>
      <circle class="cls-1" cx="47.82" cy="47.91" r="46.82"/>
      <path class="cls-2" d="M47.82,95.63C21.45,95.63,0,74.19,0,47.82S21.45,0,47.82,0s47.82,21.45,47.82,47.82-21.45,47.82-47.82,47.82Zm0-89.55C24.8,6.08,6.08,24.8,6.08,47.82s18.72,41.74,41.74,41.74,41.74-18.72,41.74-41.74S70.83,6.08,47.82,6.08Zm5.57,18.12c-2.34-4.73-3.76-9.33-4.48-12.01V46.06c1.18,.44,2.03,1.57,2.03,2.91,0,1.72-1.4,3.11-3.11,3.11s-3.11-1.39-3.11-3.11c0-1.4,.93-2.57,2.2-2.96V12.16c-.72,2.67-2.15,7.3-4.49,12.05-3.66,7.4-8.22,13.93-8.22,13.93l2.92,39.93s2.77,3.09,10.79,3.1h.01c8.01,0,10.79-3.1,10.79-3.1l2.92-39.93s-4.56-6.53-8.22-13.93h0Z"/>
    </g>
  </g>
</svg>